Mutua-Regular.ufo
<glyph name="quotedbl" format="2">
	<advance width="420"/>
	<unicode hex="0022"/>
	<outline>
		<contour>
			<point x="54" y="453" type="line"/>
			<point x="166" y="452" type="line"/>
			<point x="175" y="699" type="line"/>
			<point x="45" y="699" type="line"/>
		</contour>
		<contour>
			<point x="254" y="453" type="line"/>
			<point x="366" y="452" type="line"/>
			<point x="375" y="699" type="line"/>
			<point x="245" y="699" type="line"/>
		</contour>
	</outline>
</glyph>
<glyph name="ampersand" format="2">
	<advance width="758"/>
	<unicode hex="0026"/>
	<outline>
		<contour>
			<point x="255" y="522" type="curve"/>
			<point x="255" y="562" type="line"/>
			<point x="255" y="616"/>
			<point x="287" y="629"/>
			<point x="318" y="629" type="curve" smooth="yes"/>
			<point x="579" y="629" type="line"/>
			<point x="579" y="757" type="line"/>
			<point x="289" y="757" type="line" smooth="yes"/>
			<point x="192" y="757"/>
			<point x="126" y="701"/>
			<point x="127" y="616" type="curve"/>
			<point x="127" y="547" type="line"/>
			<point x="127" y="495"/>
			<point x="148" y="459"/>
			<point x="195" y="448" type="curve"/>
			<point x="195" y="380" type="line"/>
			<point x="738" y="-9" type="line"/>
			<point x="738" y="137" type="line"/>
			<point x="270" y="478" type="line"/>
			<point x="255" y="489"/>
			<point x="255" y="503"/>
		</contour>
		<contour>
			<point x="287" y="421" type="line"/>
			<point x="202" y="421" type="line"/>
			<point x="140" y="421"/>
			<point x="70" y="392"/>
			<point x="70" y="304" type="curve" smooth="yes"/>
			<point x="70" y="154" type="line" smooth="yes"/>
			<point x="70" y="50"/>
			<point x="128" y="0"/>
			<point x="247" y="0" type="curve" smooth="yes"/>
			<point x="451" y="0" type="line" smooth="yes"/>
			<point x="593" y="0"/>
			<point x="640" y="81"/>
			<point x="636" y="198" type="curve"/>
			<point x="636" y="425" type="line"/>
			<point x="520" y="425" type="line"/>
			<point x="520" y="206" type="line"/>
			<point x="521" y="141"/>
			<point x="494" y="129"/>
			<point x="447" y="125" type="curve"/>
			<point x="261" y="125" type="line"/>
			<point x="219" y="125"/>
			<point x="198" y="144"/>
			<point x="198" y="187" type="curve"/>
			<point x="198" y="325" type="line"/>
			<point x="197" y="372"/>
			<point x="228" y="382"/>
			<point x="250" y="385" type="curve"/>
			<point x="287" y="385" type="line"/>
		</contour>
	</outline>
</glyph>
<glyph name="asterisk" format="2">
	<advance width="443"/>
	<unicode hex="002A"/>
	<outline>
		<contour>
			<point x="50" y="524" type="line"/>
			<point x="110" y="412" type="line"/>
			<point x="173" y="467" type="line"/>
			<point x="181" y="463" type="line"/>
			<point x="161" y="384" type="line"/>
			<point x="287" y="384" type="line"/>
			<point x="267" y="464" type="line"/>
			<point x="274" y="468" type="line"/>
			<point x="328" y="408" type="line"/>
			<point x="392" y="517" type="line"/>
			<point x="315" y="541" type="line"/>
			<point x="315" y="549" type="line"/>
			<point x="393" y="569" type="line"/>
			<point x="331" y="678" type="line"/>
			<point x="274" y="621" type="line"/>
			<point x="267" y="624" type="line"/>
			<point x="285" y="705" type="line"/>
			<point x="159" y="705" type="line"/>
			<point x="181" y="628" type="line"/>
			<point x="173" y="625" type="line"/>
			<point x="115" y="682" type="line"/>
			<point x="52" y="572" type="line"/>
			<point x="129" y="549" type="line"/>
			<point x="129" y="541" type="line"/>
		</contour>
	</outline>
</glyph>
<glyph name="comma" format="2">
	<advance width="264"/>
	<unicode hex="002C"/>
	<outline>
		<contour>
			<point x="47" y="-114" type="line"/>
			<point x="162" y="-114" type="line"/>
			<point x="225" y="129" type="line"/>
			<point x="77" y="129" type="line"/>
		</contour>
	</outline>
</glyph>
<glyph name="period" format="2">
	<advance width="237"/>
	<unicode hex="002E"/>
	<outline>
		<contour>
			<point x="44" y="0" type="line"/>
			<point x="193" y="0" type="line"/>
			<point x="193" y="149" type="line"/>
			<point x="44" y="149" type="line"/>
		</contour>
	</outline>
</glyph>
<glyph name="one" format="2">
	<advance width="720"/>
	<unicode hex="0031"/>
	<outline>
		<contour>
			<point x="444" y="755" type="line"/>
			<point x="314" y="755" type="line"/>
			<point x="314" y="-1" type="line"/>
			<point x="444" y="-1" type="line"/>
		</contour>
		<contour>
			<point x="314" y="632" type="line"/>
			<point x="314" y="755" type="line"/>
			<point x="125" y="755" type="line"/>
			<point x="125" y="632" type="line"/>
		</contour>
		<contour>
			<point x="82" y="124" type="line"/>
			<point x="82" y="-2" type="line"/>
			<point x="648" y="-1" type="line"/>
			<point x="648" y="125" type="line"/>
		</contour>
	</outline>
</glyph>
<glyph name="two" format="2">
	<advance width="720"/>
	<unicode hex="0032"/>
	<outline>
		<contour>
			<point x="485" y="533" type="curve" smooth="yes"/>
			<point x="70" y="184" type="line"/>
			<point x="70" y="1" type="line"/>
			<point x="204" y="1" type="line"/>
			<point x="204" y="97" type="line"/>
			<point x="204" y="146" type="line"/>
			<point x="600" y="480" type="line" smooth="yes"/>
			<point x="632" y="507"/>
			<point x="639" y="536"/>
			<point x="639" y="578" type="curve" smooth="yes"/>
			<point x="639" y="603" type="line" smooth="yes"/>
			<point x="639" y="702"/>
			<point x="576" y="759"/>
			<point x="455" y="759" type="curve" smooth="yes"/>
			<point x="261" y="759" type="line" smooth="yes"/>
			<point x="137" y="759"/>
			<point x="75" y="702"/>
			<point x="75" y="603" type="curve" smooth="yes"/>
			<point x="75" y="508" type="line"/>
			<point x="200" y="508" type="line"/>
			<point x="200" y="571" type="line" smooth="yes"/>
			<point x="200" y="617"/>
			<point x="233" y="634"/>
			<point x="279" y="634" type="curve" smooth="yes"/>
			<point x="433" y="634" type="line" smooth="yes"/>
			<point x="469" y="634"/>
			<point x="514" y="626"/>
			<point x="514" y="589" type="curve" smooth="yes"/>
			<point x="514" y="558"/>
			<point x="505" y="550"/>
		</contour>
		<contour>
			<point x="167" y="126" type="line"/>
			<point x="137" y="0" type="line"/>
			<point x="637" y="0" type="line"/>
			<point x="637" y="126" type="line"/>
		</contour>
	</outline>
</glyph>
<glyph name="three" format="2">
	<advance width="720"/>
	<unicode hex="0033"/>
	<outline>
		<contour>
			<point x="394" y="125" type="curve"/>
			<point x="87" y="125" type="line"/>
			<point x="87" y="-1" type="line"/>
			<point x="428" y="0" type="line"/>
			<point x="572" y="0"/>
			<point x="641" y="88"/>
			<point x="641" y="196" type="curve"/>
			<point x="641" y="264" type="line"/>
			<point x="641" y="378"/>
			<point x="585" y="428"/>
			<point x="456" y="428" type="curve" smooth="yes"/>
			<point x="377" y="428" type="line"/>
			<point x="614" y="604" type="line"/>
			<point x="614" y="755" type="line"/>
			<point x="84" y="755" type="line"/>
			<point x="84" y="629" type="line"/>
			<point x="453" y="629" type="line"/>
			<point x="453" y="613" type="line"/>
			<point x="186" y="413" type="line"/>
			<point x="186" y="329" type="line"/>
			<point x="424" y="329" type="line"/>
			<point x="501" y="329"/>
			<point x="513" y="303"/>
			<point x="513" y="233" type="curve" smooth="yes"/>
			<point x="513" y="155"/>
			<point x="474" y="125"/>
		</contour>
	</outline>
</glyph>
<glyph name="six" format="2">
	<advance width="720"/>
	<unicode hex="0036"/>
	<outline>
		<contour>
			<point x="215" y="199" type="curve"/>
			<point x="215" y="250" type="line" smooth="yes"/>
			<point x="215" y="327"/>
			<point x="250" y="357"/>
			<point x="309" y="357" type="curve" smooth="yes"/>
			<point x="451" y="357" type="line" smooth="yes"/>
			<point x="503" y="357"/>
			<point x="530" y="326"/>
			<point x="530" y="279" type="curve" smooth="yes"/>
			<point x="530" y="199" type="line"/>
			<point x="530" y="152"/>
			<point x="508" y="125"/>
			<point x="457" y="125" type="curve" smooth="yes"/>
			<point x="295" y="125" type="line"/>
			<point x="238" y="125"/>
			<point x="215" y="152"/>
		</contour>
		<contour>
			<point x="87" y="528" type="curve" smooth="yes"/>
			<point x="87" y="227" type="line"/>
			<point x="87" y="49"/>
			<point x="165" y="0"/>
			<point x="378" y="0" type="curve" smooth="yes"/>
			<point x="586" y="0"/>
			<point x="652" y="48"/>
			<point x="652" y="245" type="curve"/>
			<point x="652" y="414"/>
			<point x="586" y="482"/>
			<point x="437" y="482" type="curve" smooth="yes"/>
			<point x="393" y="482" type="line" smooth="yes"/>
			<point x="288" y="482"/>
			<point x="252" y="426"/>
			<point x="232" y="370" type="curve"/>
			<point x="215" y="370" type="line"/>
			<point x="215" y="502" type="line" smooth="yes"/>
			<point x="215" y="589"/>
			<point x="253" y="629"/>
			<point x="338" y="629" type="curve" smooth="yes"/>
			<point x="590" y="629" type="line"/>
			<point x="590" y="756" type="line"/>
			<point x="315" y="756" type="line"/>
			<point x="153" y="756"/>
			<point x="87" y="675"/>
		</contour>
	</outline>
</glyph>
<glyph name="nine" format="2">
	<advance width="720"/>
	<unicode hex="0039"/>
	<outline>
		<contour>
			<point x="505" y="557" type="curve"/>
			<point x="505" y="472" type="line" smooth="yes"/>
			<point x="505" y="407"/>
			<point x="471" y="380"/>
			<point x="412" y="380" type="curve" smooth="yes"/>
			<point x="264" y="380" type="line" smooth="yes"/>
			<point x="212" y="380"/>
			<point x="190" y="407"/>
			<point x="190" y="454" type="curve" smooth="yes"/>
			<point x="189" y="557" type="line" smooth="yes"/>
			<point x="189" y="604"/>
			<point x="212" y="631"/>
			<point x="263" y="631" type="curve" smooth="yes"/>
			<point x="427" y="631" type="line" smooth="yes"/>
			<point x="482" y="631"/>
			<point x="505" y="604"/>
		</contour>
		<contour>
			<point x="633" y="230" type="curve" smooth="yes"/>
			<point x="633" y="521" type="line"/>
			<point x="633" y="691"/>
			<point x="554" y="756"/>
			<point x="388" y="756" type="curve" smooth="yes"/>
			<point x="251" y="756" type="line" smooth="yes"/>
			<point x="141" y="756"/>
			<point x="68" y="697"/>
			<point x="68" y="596" type="curve" smooth="yes"/>
			<point x="68" y="416" type="line" smooth="yes"/>
			<point x="68" y="313"/>
			<point x="131" y="255"/>
			<point x="281" y="255" type="curve" smooth="yes"/>
			<point x="327" y="255" type="line" smooth="yes"/>
			<point x="432" y="255"/>
			<point x="468" y="307"/>
			<point x="488" y="363" type="curve"/>
			<point x="505" y="363" type="line"/>
			<point x="505" y="254" type="line" smooth="yes"/>
			<point x="505" y="160"/>
			<point x="455" y="127"/>
			<point x="369" y="127" type="curve" smooth="yes"/>
			<point x="114" y="127" type="line"/>
			<point x="114" y="0" type="line"/>
			<point x="423" y="0" type="line" smooth="yes"/>
			<point x="565" y="0"/>
			<point x="633" y="88"/>
		</contour>
	</outline>
</glyph>
<glyph name="question" format="2">
	<advance width="570"/>
	<unicode hex="003F"/>
	<outline>
		<contour>
			<point x="371" y="452" type="curve" smooth="yes"/>
			<point x="215" y="452" type="line"/>
			<point x="145" y="452"/>
			<point x="109" y="423"/>
			<point x="109" y="356" type="curve" smooth="yes"/>
			<point x="109" y="324"/>
			<point x="109" y="227"/>
			<point x="109" y="204" type="curve"/>
			<point x="231" y="204" type="line"/>
			<point x="231" y="244"/>
			<point x="231" y="271"/>
			<point x="231" y="296" type="curve" smooth="yes"/>
			<point x="231" y="321"/>
			<point x="243" y="332"/>
			<point x="271" y="332" type="curve" smooth="yes"/>
			<point x="421" y="333" type="line" smooth="yes"/>
			<point x="497" y="334"/>
			<point x="530" y="373"/>
			<point x="530" y="443" type="curve" smooth="yes"/>
			<point x="530" y="595" type="line" smooth="yes"/>
			<point x="530" y="671"/>
			<point x="497" y="704"/>
			<point x="421" y="704" type="curve" smooth="yes"/>
			<point x="107" y="704" type="line"/>
			<point x="107" y="579" type="line"/>
			<point x="371" y="579" type="line" smooth="yes"/>
			<point x="398" y="579"/>
			<point x="410" y="561"/>
			<point x="410" y="541" type="curve" smooth="yes"/>
			<point x="410" y="521"/>
			<point x="410" y="508"/>
			<point x="410" y="495" type="curve" smooth="yes"/>
			<point x="410" y="465"/>
			<point x="398" y="452"/>
		</contour>
		<contour>
			<point x="107" y="0" type="line"/>
			<point x="236" y="0" type="line"/>
			<point x="236" y="129" type="line"/>
			<point x="107" y="129" type="line"/>
		</contour>
	</outline>
</glyph>
<glyph name="C" format="2">
	<advance width="703"/>
	<unicode hex="0043"/>
	<outline>
		<contour>
			<point x="223" y="503" type="curve" smooth="yes"/>
			<point x="223" y="253" type="line"/>
			<point x="223" y="168"/>
			<point x="258" y="131"/>
			<point x="346" y="131" type="curve" smooth="yes"/>
			<point x="634" y="131" type="line"/>
			<point x="634" y="0" type="line"/>
			<point x="297" y="0" type="line" smooth="yes"/>
			<point x="158" y="0"/>
			<point x="92" y="82"/>
			<point x="92" y="230" type="curve"/>
			<point x="92" y="528" type="line"/>
			<point x="92" y="676"/>
			<point x="157" y="756"/>
			<point x="297" y="756" type="curve" smooth="yes"/>
			<point x="634" y="756" type="line"/>
			<point x="634" y="625" type="line"/>
			<point x="345" y="625" type="line" smooth="yes"/>
			<point x="259" y="625"/>
			<point x="223" y="588"/>
		</contour>
	</outline>
</glyph>
<glyph name="F" format="2">
	<advance width="702"/>
	<unicode hex="0046"/>
	<outline>
		<contour>
			<point x="246" y="756" type="line"/>
			<point x="114" y="756" type="line"/>
			<point x="114" y="0" type="line"/>
			<point x="246" y="0" type="line"/>
		</contour>
		<contour>
			<point x="636" y="629" type="line"/>
			<point x="636" y="756" type="line"/>
			<point x="246" y="756" type="line"/>
			<point x="246" y="629" type="line"/>
		</contour>
		<contour>
			<point x="246" y="421" type="line"/>
			<point x="246" y="294" type="line"/>
			<point x="561" y="294" type="line"/>
			<point x="561" y="421" type="line"/>
		</contour>
	</outline>
</glyph>
<glyph name="I" format="2">
	<advance width="674"/>
	<unicode hex="0049"/>
	<anchor x="607" y="10" name="ogonek"/>
	<anchor x="337" y="756" name="top"/>
	<anchor x="20" y="756" name="topleft"/>
	<anchor x="337" y="0" name="bottom"/>
	<outline>
		<contour>
			<point x="589" y="755" type="line"/>
			<point x="85" y="755" type="line"/>
			<point x="85" y="630" type="line"/>
			<point x="316" y="630" type="line"/>
			<point x="272" y="673" type="line"/>
			<point x="272" y="82" type="line"/>
			<point x="316" y="125" type="line"/>
			<point x="85" y="125" type="line"/>
			<point x="85" y="0" type="line"/>
			<point x="589" y="0" type="line"/>
			<point x="589" y="125" type="line"/>
			<point x="356" y="125" type="line"/>
			<point x="400" y="82" type="line"/>
			<point x="400" y="673" type="line"/>
			<point x="356" y="630" type="line"/>
			<point x="589" y="630" type="line"/>
		</contour>
	</outline>
</glyph>
<glyph name="J" format="2">
	<advance width="588"/>
	<unicode hex="004A"/>
	<outline>
		<contour>
			<point x="474" y="176" type="curve" smooth="yes"/>
			<point x="474" y="756" type="line"/>
			<point x="111" y="756" type="line"/>
			<point x="111" y="629" type="line"/>
			<point x="389" y="629" type="line"/>
			<point x="344" y="680" type="line"/>
			<point x="344" y="199" type="line" smooth="yes"/>
			<point x="344" y="149"/>
			<point x="322" y="127"/>
			<point x="273" y="127" type="curve" smooth="yes"/>
			<point x="53" y="127" type="line"/>
			<point x="53" y="0" type="line"/>
			<point x="317" y="0" type="line" smooth="yes"/>
			<point x="426" y="0"/>
			<point x="474" y="54"/>
		</contour>
	</outline>
</glyph>
<glyph name="K" format="2">
	<advance width="747"/>
	<unicode hex="004B"/>
	<outline>
		<contour>
			<point x="114" y="0" type="line"/>
			<point x="245" y="0" type="line"/>
			<point x="245" y="322" type="line"/>
			<point x="362" y="322" type="line"/>
			<point x="573" y="-1" type="line"/>
			<point x="739" y="-1" type="line"/>
			<point x="446" y="429" type="line"/>
			<point x="444" y="352" type="line"/>
			<point x="709" y="756" type="line"/>
			<point x="551" y="756" type="line"/>
			<point x="360" y="450" type="line"/>
			<point x="245" y="450" type="line"/>
			<point x="245" y="756" type="line"/>
			<point x="114" y="756" type="line"/>
		</contour>
	</outline>
</glyph>
<glyph name="N" format="2">
	<advance width="843"/>
	<unicode hex="004E"/>
	<anchor x="422" y="756" name="top"/>
	<anchor x="408" y="0" name="bottom"/>
	<outline>
		<contour>
			<point x="114" y="0" type="line"/>
			<point x="234" y="0" type="line"/>
			<point x="236" y="678" type="line"/>
			<point x="217" y="674" type="line"/>
			<point x="528" y="0" type="line"/>
			<point x="729" y="0" type="line"/>
			<point x="729" y="756" type="line"/>
			<point x="608" y="756" type="line"/>
			<point x="608" y="79" type="line"/>
			<point x="627" y="83" type="line"/>
			<point x="317" y="756" type="line"/>
			<point x="114" y="756" type="line"/>
		</contour>
	</outline>
</glyph>
<glyph name="R" format="2">
	<advance width="795"/>
	<unicode hex="0052"/>
	<outline>
		<contour>
			<point x="114" y="0" type="line"/>
			<point x="244" y="0" type="line"/>
			<point x="244" y="756" type="line"/>
			<point x="114" y="756" type="line"/>
		</contour>
		<contour>
			<point x="728" y="-1" type="curve"/>
			<point x="548" y="320" type="line"/>
			<point x="564" y="320" type="line"/>
			<point x="648" y="320"/>
			<point x="699" y="378"/>
			<point x="699" y="488" type="curve" smooth="yes"/>
			<point x="699" y="601" type="line" smooth="yes"/>
			<point x="699" y="709"/>
			<point x="658" y="756"/>
			<point x="512" y="756" type="curve" smooth="yes"/>
			<point x="199" y="756" type="line"/>
			<point x="199" y="629" type="line"/>
			<point x="484" y="629" type="line"/>
			<point x="559" y="629"/>
			<point x="573" y="592"/>
			<point x="573" y="541" type="curve" smooth="yes"/>
			<point x="573" y="447"/>
			<point x="540" y="428"/>
			<point x="460" y="428" type="curve"/>
			<point x="232" y="428" type="line"/>
			<point x="232" y="301" type="line"/>
			<point x="408" y="301" type="line"/>
			<point x="573" y="0" type="line"/>
			<point x="573" y="0"/>
			<point x="728" y="-1"/>
		</contour>
	</outline>
</glyph>
<glyph name="S" format="2">
	<advance width="714"/>
	<unicode hex="0053"/>
	<guideline x="-850" y="0" angle="0"/>
	<guideline x="-923" y="0" angle="0"/>
	<guideline x="-944" y="0" angle="0"/>
	<outline>
		<contour>
			<point x="68" y="583" type="curve" smooth="yes"/>
			<point x="68" y="533" type="line" smooth="yes"/>
			<point x="68" y="404"/>
			<point x="144" y="366"/>
			<point x="206" y="355" type="curve" smooth="yes"/>
			<point x="418" y="317" type="line" smooth="yes"/>
			<point x="490" y="304"/>
			<point x="502" y="288"/>
			<point x="502" y="216" type="curve" smooth="yes"/>
			<point x="502" y="142"/>
			<point x="486" y="127"/>
			<point x="414" y="127" type="curve" smooth="yes"/>
			<point x="76" y="127" type="line"/>
			<point x="76" y="0" type="line"/>
			<point x="443" y="0" type="line" smooth="yes"/>
			<point x="564" y="0"/>
			<point x="641" y="72"/>
			<point x="641" y="213" type="curve" smooth="yes"/>
			<point x="641" y="264" type="line" smooth="yes"/>
			<point x="641" y="390"/>
			<point x="564" y="428"/>
			<point x="501" y="439" type="curve" smooth="yes"/>
			<point x="286" y="477" type="line" smooth="yes"/>
			<point x="216" y="489"/>
			<point x="207" y="509"/>
			<point x="207" y="560" type="curve" smooth="yes"/>
			<point x="207" y="614"/>
			<point x="223" y="629"/>
			<point x="283" y="629" type="curve" smooth="yes"/>
			<point x="599" y="629" type="line"/>
			<point x="599" y="756" type="line"/>
			<point x="249" y="756" type="line" smooth="yes"/>
			<point x="144" y="756"/>
			<point x="68" y="680"/>
		</contour>
	</outline>
</glyph>
<glyph name="U" format="2">
	<advance width="775"/>
	<unicode hex="0055"/>
	<anchor x="698" y="10" name="ogonek"/>
	<anchor x="388" y="756" name="top"/>
	<anchor x="755" y="756" name="topright"/>
	<anchor x="388" y="0" name="bottom"/>
	<outline>
		<contour>
			<point x="689" y="235" type="curve" smooth="yes"/>
			<point x="689" y="756" type="line"/>
			<point x="559" y="756" type="line"/>
			<point x="561" y="246" type="line" smooth="yes"/>
			<point x="561" y="165"/>
			<point x="528" y="127"/>
			<point x="444" y="127" type="curve" smooth="yes"/>
			<point x="333" y="127" type="line" smooth="yes"/>
			<point x="248" y="127"/>
			<point x="215" y="165"/>
			<point x="215" y="246" type="curve" smooth="yes"/>
			<point x="215" y="756" type="line"/>
			<point x="86" y="756" type="line"/>
			<point x="86" y="235" type="line" smooth="yes"/>
			<point x="86" y="71"/>
			<point x="161" y="-4"/>
			<point x="341" y="-4" type="curve" smooth="yes"/>
			<point x="350" y="-4"/>
			<point x="415" y="-4"/>
			<point x="427" y="-4" type="curve" smooth="yes"/>
			<point x="611" y="-4"/>
			<point x="689" y="71"/>
		</contour>
	</outline>
</glyph>
<glyph name="V" format="2">
	<advance width="749"/>
	<unicode hex="0056"/>
	<outline>
		<contour>
			<point x="27" y="756" type="line"/>
			<point x="269" y="0" type="line"/>
			<point x="480" y="0" type="line"/>
			<point x="722" y="756" type="line"/>
			<point x="584" y="756" type="line"/>
			<point x="378" y="83" type="line"/>
			<point x="428" y="119" type="line"/>
			<point x="316" y="119" type="line"/>
			<point x="380" y="83" type="line"/>
			<point x="170" y="756" type="line"/>
		</contour>
	</outline>
</glyph>
<glyph name="X" format="2">
	<advance width="694"/>
	<unicode hex="0058"/>
	<guideline x="-1212" y="0" angle="0"/>
	<guideline x="-1273" y="0" angle="0"/>
	<outline>
		<contour>
			<point x="14" y="0" type="line"/>
			<point x="161" y="0" type="line"/>
			<point x="330" y="306" type="line"/>
			<point x="364" y="306" type="line"/>
			<point x="523" y="0" type="line"/>
			<point x="680" y="0" type="line"/>
			<point x="450" y="426" type="line"/>
			<point x="455" y="329" type="line"/>
			<point x="678" y="756" type="line"/>
			<point x="532" y="756" type="line"/>
			<point x="363" y="434" type="line"/>
			<point x="332" y="434" type="line"/>
			<point x="174" y="756" type="line"/>
			<point x="18" y="756" type="line"/>
			<point x="230" y="329" type="line"/>
			<point x="244" y="426" type="line"/>
		</contour>
	</outline>
</glyph>
<glyph name="Z" format="2">
	<advance width="697"/>
	<unicode hex="005A"/>
	<outline>
		<contour>
			<point x="625" y="0" type="line"/>
			<point x="625" y="130" type="line"/>
			<point x="213" y="130" type="line"/>
			<point x="213" y="158" type="line"/>
			<point x="625" y="556" type="line"/>
			<point x="625" y="754" type="line"/>
			<point x="103" y="754" type="line"/>
			<point x="103" y="624" type="line"/>
			<point x="490" y="624" type="line"/>
			<point x="490" y="593" type="line"/>
			<point x="77" y="203" type="line"/>
			<point x="77" y="0" type="line"/>
		</contour>
	</outline>
</glyph>
<glyph name="bracketleft" format="2">
	<advance width="399"/>
	<unicode hex="005B"/>
	<outline>
		<contour>
			<point x="236" y="776" type="line"/>
			<point x="106" y="776" type="line"/>
			<point x="106" y="-147" type="line"/>
			<point x="236" y="-147" type="line"/>
		</contour>
		<contour>
			<point x="106" y="776" type="line"/>
			<point x="106" y="663" type="line"/>
			<point x="316" y="663" type="line"/>
			<point x="316" y="776" type="line"/>
		</contour>
		<contour>
			<point x="106" y="-34" type="line"/>
			<point x="106" y="-147" type="line"/>
			<point x="316" y="-147" type="line"/>
			<point x="316" y="-34" type="line"/>
		</contour>
	</outline>
</glyph>
<glyph name="underscore" format="2">
	<advance width="547"/>
	<unicode hex="005F"/>
	<outline>
		<contour>
			<point x="50" y="-166" type="line"/>
			<point x="497" y="-166" type="line"/>
			<point x="497" y="-37" type="line"/>
			<point x="50" y="-37" type="line"/>
		</contour>
	</outline>
</glyph>
<glyph name="a" format="2">
	<advance width="644"/>
	<unicode hex="0061"/>
	<anchor x="342" y="556" name="top"/>
	<anchor x="322" y="0" name="bottom"/>
	<anchor x="580" y="10" name="ogonek"/>
	<outline>
		<contour>
			<point x="442" y="379" type="curve" smooth="yes"/>
			<point x="442" y="284" type="line"/>
			<point x="564" y="284" type="line"/>
			<point x="564" y="396" type="line" smooth="yes"/>
			<point x="564" y="500"/>
			<point x="508" y="563"/>
			<point x="404" y="563" type="curve" smooth="yes"/>
			<point x="104" y="563" type="line"/>
			<point x="104" y="441" type="line"/>
			<point x="382" y="441" type="line" smooth="yes"/>
			<point x="421" y="441"/>
			<point x="442" y="420"/>
		</contour>
		<contour>
			<point x="460" y="0" type="line"/>
			<point x="564" y="0" type="line"/>
			<point x="564" y="284" type="line"/>
			<point x="442" y="284" type="line"/>
			<point x="443" y="195" type="line"/>
			<point x="459" y="125" type="line"/>
		</contour>
		<contour>
			<point x="465" y="336" type="line"/>
			<point x="202" y="336" type="line" smooth="yes"/>
			<point x="118" y="336"/>
			<point x="72" y="290"/>
			<point x="72" y="206" type="curve" smooth="yes"/>
			<point x="72" y="156" type="line" smooth="yes"/>
			<point x="72" y="52"/>
			<point x="128" y="-4"/>
			<point x="232" y="-4" type="curve" smooth="yes"/>
			<point x="287" y="-4" type="line" smooth="yes"/>
			<point x="375" y="-4"/>
			<point x="424" y="44"/>
			<point x="442" y="113" type="curve"/>
			<point x="525" y="113" type="line"/>
			<point x="443" y="212" type="line"/>
			<point x="443" y="122"/>
			<point x="394" y="113"/>
			<point x="349" y="113" type="curve" smooth="yes"/>
			<point x="247" y="113" type="line" smooth="yes"/>
			<point x="208" y="113"/>
			<point x="187" y="134"/>
			<point x="187" y="171" type="curve" smooth="yes"/>
			<point x="187" y="208"/>
			<point x="208" y="229"/>
			<point x="247" y="229" type="curve" smooth="yes"/>
			<point x="465" y="229" type="line"/>
		</contour>
	</outline>
</glyph>
<glyph name="d" format="2">
	<advance width="691"/>
	<unicode hex="0064"/>
	<guideline x="-2621" y="0" angle="0"/>
	<guideline x="27" y="1513" angle="0"/>
	<outline>
		<contour>
			<point x="594" y="778" type="line"/>
			<point x="465" y="778" type="line"/>
			<point x="465" y="172" type="line"/>
			<point x="470" y="125" type="line"/>
			<point x="485" y="0" type="line"/>
			<point x="594" y="0" type="line"/>
		</contour>
		<contour>
			<point x="196" y="202" type="curve"/>
			<point x="196" y="358" type="line"/>
			<point x="196" y="414"/>
			<point x="229" y="440"/>
			<point x="285" y="440" type="curve" smooth="yes"/>
			<point x="465" y="439" type="line"/>
			<point x="505" y="557" type="line"/>
			<point x="257" y="557" type="line"/>
			<point x="137" y="557"/>
			<point x="74" y="481"/>
			<point x="74" y="344" type="curve"/>
			<point x="74" y="212" type="line"/>
			<point x="74" y="70"/>
			<point x="137" y="-6"/>
			<point x="239" y="-6" type="curve"/>
			<point x="330" y="-7" type="line"/>
			<point x="415" y="-7"/>
			<point x="444" y="48"/>
			<point x="452" y="110" type="curve"/>
			<point x="534" y="110" type="line"/>
			<point x="465" y="221" type="line"/>
			<point x="465" y="131"/>
			<point x="426" y="118"/>
			<point x="359" y="119" type="curve" smooth="yes"/>
			<point x="286" y="120" type="line" smooth="yes"/>
			<point x="230" y="121"/>
			<point x="196" y="146"/>
		</contour>
	</outline>
</glyph>
<glyph name="e" format="2">
	<advance width="661"/>
	<unicode hex="0065"/>
	<anchor x="334" y="556" name="top"/>
	<anchor x="331" y="0" name="bottom"/>
	<anchor x="595" y="10" name="ogonek"/>
	<outline>
		<contour>
			<point x="269" y="-3" type="curve" smooth="yes"/>
			<point x="550" y="-3" type="line"/>
			<point x="550" y="116" type="line"/>
			<point x="302" y="116" type="line" smooth="yes"/>
			<point x="223" y="116"/>
			<point x="190" y="146"/>
			<point x="190" y="222" type="curve"/>
			<point x="196" y="341" type="line"/>
			<point x="196" y="413"/>
			<point x="229" y="449"/>
			<point x="298" y="449" type="curve" smooth="yes"/>
			<point x="371" y="449" type="line" smooth="yes"/>
			<point x="444" y="449"/>
			<point x="477" y="413"/>
			<point x="477" y="341" type="curve" smooth="yes"/>
			<point x="477" y="306" type="line"/>
			<point x="600" y="221" type="line"/>
			<point x="600" y="337" type="line" smooth="yes"/>
			<point x="600" y="503"/>
			<point x="517" y="566"/>
			<point x="385" y="566" type="curve" smooth="yes"/>
			<point x="297" y="566" type="line" smooth="yes"/>
			<point x="158" y="566"/>
			<point x="68" y="474"/>
			<point x="68" y="333" type="curve" smooth="yes"/>
			<point x="68" y="226" type="line" smooth="yes"/>
			<point x="68" y="86"/>
			<point x="144" y="-3"/>
		</contour>
		<contour>
			<point x="88" y="221" type="line"/>
			<point x="600" y="221" type="line"/>
			<point x="600" y="320" type="line"/>
			<point x="88" y="315" type="line"/>
		</contour>
	</outline>
</glyph>
<glyph name="h" format="2">
	<advance width="685"/>
	<unicode hex="0068"/>
	<outline>
		<contour>
			<point x="97" y="778" type="line"/>
			<point x="97" y="0" type="line"/>
			<point x="223" y="0" type="line"/>
			<point x="223" y="362" type="line"/>
			<point x="210" y="432" type="line"/>
			<point x="209" y="778" type="line"/>
		</contour>
		<contour>
			<point x="378" y="436" type="curve" smooth="yes"/>
			<point x="448" y="436"/>
			<point x="482" y="402"/>
			<point x="482" y="323" type="curve" smooth="yes"/>
			<point x="482" y="0" type="line"/>
			<point x="605" y="0" type="line"/>
			<point x="605" y="380" type="line" smooth="yes"/>
			<point x="605" y="498"/>
			<point x="547" y="559"/>
			<point x="426" y="559" type="curve" smooth="yes"/>
			<point x="384" y="559" type="line" smooth="yes"/>
			<point x="286" y="559"/>
			<point x="250" y="507"/>
			<point x="230" y="432" type="curve"/>
			<point x="207" y="432" type="line"/>
			<point x="223" y="333" type="line"/>
			<point x="223" y="423"/>
			<point x="297" y="436"/>
		</contour>
	</outline>
</glyph>
<glyph name="j" format="2">
	<advance width="328"/>
	<unicode hex="006A"/>
	<outline>
		<contour>
			<point x="110" y="778" type="line"/>
			<point x="110" y="652" type="line"/>
			<point x="238" y="652" type="line"/>
			<point x="238" y="778" type="line"/>
		</contour>
		<contour>
			<point x="238" y="-59" type="curve" smooth="yes"/>
			<point x="238" y="556" type="line"/>
			<point x="115" y="556" type="line"/>
			<point x="115" y="-29" type="line" smooth="yes"/>
			<point x="115" y="-68"/>
			<point x="94" y="-89"/>
			<point x="52" y="-89" type="curve" smooth="yes"/>
			<point x="-40" y="-89" type="line"/>
			<point x="-40" y="-213" type="line"/>
			<point x="78" y="-213" type="line" smooth="yes"/>
			<point x="182" y="-213"/>
			<point x="238" y="-156"/>
		</contour>
	</outline>
</glyph>
<glyph name="k" format="2">
	<advance width="634"/>
	<unicode hex="006B"/>
	<outline>
		<contour>
			<point x="97" y="0" type="line"/>
			<point x="222" y="0" type="line"/>
			<point x="222" y="240" type="line"/>
			<point x="310" y="240" type="line"/>
			<point x="480" y="0" type="line"/>
			<point x="623" y="0" type="line"/>
			<point x="373" y="350" type="line"/>
			<point x="372" y="279" type="line"/>
			<point x="594" y="556" type="line"/>
			<point x="449" y="556" type="line"/>
			<point x="301" y="364" type="line"/>
			<point x="222" y="364" type="line"/>
			<point x="222" y="778" type="line"/>
			<point x="97" y="778" type="line"/>
		</contour>
	</outline>
</glyph>
<glyph name="o" format="2">
	<advance width="688"/>
	<unicode hex="006F"/>
	<anchor x="331" y="278" name="center"/>
	<anchor x="580" y="-1" name="ogonek"/>
	<anchor x="344" y="566" name="top"/>
	<anchor x="606" y="556" name="topright"/>
	<anchor x="327" y="-13" name="bottom"/>
	<outline>
		<contour>
			<point x="501" y="331" type="curve" smooth="yes"/>
			<point x="501" y="225" type="line" smooth="yes"/>
			<point x="501" y="143"/>
			<point x="462" y="112"/>
			<point x="375" y="112" type="curve" smooth="yes"/>
			<point x="323" y="112" type="line" smooth="yes"/>
			<point x="228" y="112"/>
			<point x="187" y="143"/>
			<point x="187" y="225" type="curve" smooth="yes"/>
			<point x="187" y="331" type="line" smooth="yes"/>
			<point x="187" y="413"/>
			<point x="228" y="444"/>
			<point x="323" y="444" type="curve" smooth="yes"/>
			<point x="375" y="444" type="line" smooth="yes"/>
			<point x="462" y="444"/>
			<point x="501" y="413"/>
		</contour>
		<contour>
			<point x="68" y="326" type="curve" smooth="yes"/>
			<point x="68" y="230" type="line"/>
			<point x="68" y="82"/>
			<point x="149" y="-10"/>
			<point x="284" y="-10" type="curve" smooth="yes"/>
			<point x="404" y="-10" type="line"/>
			<point x="539" y="-10"/>
			<point x="620" y="82"/>
			<point x="620" y="230" type="curve" smooth="yes"/>
			<point x="620" y="326" type="line" smooth="yes"/>
			<point x="620" y="474"/>
			<point x="539" y="566"/>
			<point x="404" y="566" type="curve" smooth="yes"/>
			<point x="284" y="566" type="line"/>
			<point x="149" y="566"/>
			<point x="68" y="474"/>
		</contour>
	</outline>
</glyph>
<glyph name="p" format="2">
	<advance width="675"/>
	<unicode hex="0070"/>
	<guideline x="83" y="0" angle="0"/>
	<outline>
		<contour>
			<point x="90" y="556" type="line"/>
			<point x="90" y="-211" type="line"/>
			<point x="213" y="-211" type="line"/>
			<point x="213" y="117" type="line"/>
			<point x="215" y="357" type="line"/>
			<point x="201" y="432" type="line"/>
			<point x="199" y="556" type="line"/>
		</contour>
		<contour>
			<point x="381" y="119" type="curve" smooth="yes"/>
			<point x="178" y="119" type="line"/>
			<point x="178" y="0" type="line"/>
			<point x="380" y="0" type="line" smooth="yes"/>
			<point x="516" y="0"/>
			<point x="600" y="90"/>
			<point x="600" y="238" type="curve" smooth="yes"/>
			<point x="600" y="380" type="line" smooth="yes"/>
			<point x="600" y="498"/>
			<point x="542" y="559"/>
			<point x="415" y="559" type="curve" smooth="yes"/>
			<point x="373" y="559" type="line" smooth="yes"/>
			<point x="258" y="559"/>
			<point x="230" y="487"/>
			<point x="216" y="432" type="curve"/>
			<point x="201" y="432" type="line"/>
			<point x="215" y="333" type="line"/>
			<point x="215" y="416"/>
			<point x="255" y="432"/>
			<point x="324" y="432" type="curve"/>
			<point x="324" y="432"/>
			<point x="380" y="432"/>
			<point x="380" y="432" type="curve"/>
			<point x="450" y="432"/>
			<point x="477" y="403"/>
			<point x="477" y="341" type="curve" smooth="yes"/>
			<point x="477" y="209" type="line" smooth="yes"/>
			<point x="477" y="147"/>
			<point x="450" y="119"/>
		</contour>
	</outline>
</glyph>
<glyph name="r" format="2">
	<advance width="473"/>
	<unicode hex="0072"/>
	<outline>
		<contour>
			<point x="90" y="556" type="line"/>
			<point x="90" y="0" type="line"/>
			<point x="216" y="0" type="line"/>
			<point x="216" y="362" type="line"/>
			<point x="199" y="432" type="line"/>
			<point x="199" y="556" type="line"/>
		</contour>
		<contour>
			<point x="324" y="432" type="curve" smooth="yes"/>
			<point x="438" y="432" type="line"/>
			<point x="438" y="563" type="line"/>
			<point x="365" y="563" type="line" smooth="yes"/>
			<point x="266" y="563"/>
			<point x="238" y="513"/>
			<point x="216" y="432" type="curve"/>
			<point x="135" y="432" type="line"/>
			<point x="216" y="330" type="line"/>
			<point x="216" y="402"/>
			<point x="249" y="432"/>
		</contour>
	</outline>
</glyph>
<glyph name="w" format="2">
	<advance width="920"/>
	<unicode hex="0077"/>
	<outline>
		<contour>
			<point x="36" y="556" type="line"/>
			<point x="176" y="0" type="line"/>
			<point x="360" y="0" type="line"/>
			<point x="450" y="432" type="line"/>
			<point x="471" y="432" type="line"/>
			<point x="561" y="0" type="line"/>
			<point x="740" y="0" type="line"/>
			<point x="884" y="556" type="line"/>
			<point x="763" y="556" type="line"/>
			<point x="662" y="110" type="line"/>
			<point x="708" y="124" type="line"/>
			<point x="592" y="124" type="line"/>
			<point x="647" y="110" type="line"/>
			<point x="547" y="556" type="line"/>
			<point x="374" y="556" type="line"/>
			<point x="276" y="110" type="line"/>
			<point x="331" y="124" type="line"/>
			<point x="215" y="124" type="line"/>
			<point x="262" y="110" type="line"/>
			<point x="159" y="556" type="line"/>
		</contour>
	</outline>
</glyph>
<glyph name="braceleft" format="2">
	<advance width="486"/>
	<unicode hex="007B"/>
	<guideline x="446" y="219" angle="90"/>
	<guideline x="721" y="277" angle="180.295"/>
	<outline>
		<contour>
			<point x="368" y="663" type="curve" smooth="yes"/>
			<point x="411" y="663" type="line"/>
			<point x="411" y="778" type="line"/>
			<point x="320" y="778" type="line" smooth="yes"/>
			<point x="212" y="778"/>
			<point x="164" y="733"/>
			<point x="163" y="576" type="curve" smooth="yes"/>
			<point x="162" y="381" type="line"/>
			<point x="90" y="366" type="line"/>
			<point x="90" y="252" type="line"/>
			<point x="162" y="236" type="line"/>
			<point x="162" y="47" type="line" smooth="yes"/>
			<point x="162" y="-99"/>
			<point x="211" y="-145"/>
			<point x="319" y="-145" type="curve" smooth="yes"/>
			<point x="384" y="-145" type="line"/>
			<point x="384" y="-30" type="line"/>
			<point x="348" y="-30" type="line" smooth="yes"/>
			<point x="303" y="-30"/>
			<point x="285" y="-4"/>
			<point x="285" y="47" type="curve" smooth="yes"/>
			<point x="286" y="215" type="line" smooth="yes"/>
			<point x="286" y="238"/>
			<point x="266" y="291"/>
			<point x="220" y="291" type="curve" smooth="yes"/>
			<point x="192" y="291" type="line"/>
			<point x="192" y="327" type="line"/>
			<point x="220" y="327" type="line" smooth="yes"/>
			<point x="266" y="327"/>
			<point x="286" y="363"/>
			<point x="286" y="402" type="curve" smooth="yes"/>
			<point x="287" y="553" type="line" smooth="yes"/>
			<point x="288" y="632"/>
			<point x="312" y="663"/>
		</contour>
	</outline>
</glyph>
<glyph name="guillemotleft" format="2">
	<advance width="477"/>
	<unicode hex="00AB"/>
	<outline>
		<contour>
			<point x="50" y="183" type="line"/>
			<point x="223" y="63" type="line"/>
			<point x="223" y="203" type="line"/>
			<point x="143" y="259" type="line"/>
			<point x="143" y="279" type="line"/>
			<point x="223" y="335" type="line"/>
			<point x="223" y="475" type="line"/>
			<point x="50" y="355" type="line"/>
		</contour>
		<contour>
			<point x="254" y="183" type="line"/>
			<point x="427" y="63" type="line"/>
			<point x="427" y="203" type="line"/>
			<point x="347" y="259" type="line"/>
			<point x="347" y="279" type="line"/>
			<point x="427" y="335" type="line"/>
			<point x="427" y="475" type="line"/>
			<point x="254" y="355" type="line"/>
		</contour>
	</outline>
</glyph>
<glyph name="endash" format="2">
	<advance width="606"/>
	<unicode hex="2013"/>
	<outline>
		<contour>
			<point x="58" y="191" type="line"/>
			<point x="548" y="191" type="line"/>
			<point x="548" y="320" type="line"/>
			<point x="58" y="320" type="line"/>
		</contour>
	</outline>
</glyph>
<glyph name="emdash" format="2">
	<advance width="1117"/>
	<unicode hex="2014"/>
	<outline>
		<contour>
			<point x="58" y="191" type="line"/>
			<point x="1059" y="191" type="line"/>
			<point x="1059" y="320" type="line"/>
			<point x="58" y="320" type="line"/>
		</contour>
	</outline>
</glyph>
<glyph name="quoteleft" format="2">
	<advance width="256"/>
	<unicode hex="2018"/>
	<outline>
		<contour>
			<point x="97" y="699" type="line"/>
			<point x="40" y="451" type="line"/>
			<point x="170" y="451" type="line"/>
			<point x="206" y="699" type="line"/>
		</contour>
	</outline>
</glyph>
<glyph name="leftArrow" format="2">
	<advance width="816"/>
	<unicode hex="2190"/>
	<outline>
		<contour>
			<point x="385" y="776" type="line"/>
			<point x="30" y="443" type="line"/>
			<point x="30" y="313" type="line"/>
			<point x="385" y="-20" type="line"/>
			<point x="469" y="65" type="line"/>
			<point x="106" y="378" type="line"/>
			<point x="196" y="273" type="line"/>
			<point x="196" y="348" type="line"/>
			<point x="72" y="313" type="line"/>
			<point x="786" y="313" type="line"/>
			<point x="786" y="443" type="line"/>
			<point x="72" y="443" type="line"/>
			<point x="196" y="414" type="line"/>
			<point x="196" y="477" type="line"/>
			<point x="106" y="378" type="line"/>
			<point x="469" y="691" type="line"/>
		</contour>
	</outline>
</glyph>
<glyph name="upArrow" format="2">
	<advance width="856"/>
	<unicode hex="2191"/>
	<outline>
		<contour>
			<point x="826" y="401" type="line"/>
			<point x="493" y="756" type="line"/>
			<point x="363" y="756" type="line"/>
			<point x="30" y="401" type="line"/>
			<point x="115" y="317" type="line"/>
			<point x="428" y="680" type="line"/>
			<point x="323" y="590" type="line"/>
			<point x="398" y="590" type="line"/>
			<point x="363" y="714" type="line"/>
			<point x="363" y="0" type="line"/>
			<point x="493" y="0" type="line"/>
			<point x="493" y="714" type="line"/>
			<point x="464" y="590" type="line"/>
			<point x="527" y="590" type="line"/>
			<point x="428" y="680" type="line"/>
			<point x="741" y="317" type="line"/>
		</contour>
	</outline>
</glyph>
<glyph name="rightArrow" format="2">
	<advance width="816"/>
	<unicode hex="2192"/>
	<outline>
		<contour>
			<point x="431" y="-20" type="line"/>
			<point x="786" y="313" type="line"/>
			<point x="786" y="443" type="line"/>
			<point x="431" y="776" type="line"/>
			<point x="347" y="691" type="line"/>
			<point x="710" y="378" type="line"/>
			<point x="620" y="483" type="line"/>
			<point x="620" y="408" type="line"/>
			<point x="744" y="443" type="line"/>
			<point x="30" y="443" type="line"/>
			<point x="30" y="313" type="line"/>
			<point x="744" y="313" type="line"/>
			<point x="620" y="342" type="line"/>
			<point x="620" y="279" type="line"/>
			<point x="710" y="378" type="line"/>
			<point x="347" y="65" type="line"/>
		</contour>
	</outline>
</glyph>
<glyph name="northWestArrow" format="2">
	<advance width="856"/>
	<unicode hex="2196"/>
	<outline>
		<contour>
			<point x="150" y="171" type="line"/>
			<point x="126" y="658" type="line"/>
			<point x="216" y="751" type="line"/>
			<point x="703" y="744" type="line"/>
			<point x="705" y="625" type="line"/>
			<point x="226" y="652" type="line"/>
			<point x="364" y="665" type="line"/>
			<point x="312" y="611" type="line"/>
			<point x="245" y="725" type="line"/>
			<point x="759" y="229" type="line"/>
			<point x="669" y="129" type="line"/>
			<point x="155" y="625" type="line"/>
			<point x="266" y="563" type="line"/>
			<point x="222" y="518" type="line"/>
			<point x="228" y="650" type="line"/>
			<point x="270" y="174" type="line"/>
		</contour>
	</outline>
</glyph>
<glyph name="Advertencia" format="2">
	<advance width="832"/>
	<outline>
		<contour>
			<point x="9" y="0" type="line"/>
			<point x="823" y="0" type="line"/>
			<point x="823" y="104" type="line"/>
			<point x="469" y="761" type="line"/>
			<point x="358" y="761" type="line"/>
			<point x="9" y="104" type="line"/>
		</contour>
		<contour>
			<point x="363" y="110" type="line"/>
			<point x="363" y="226" type="line"/>
			<point x="469" y="226" type="line"/>
			<point x="469" y="110" type="line"/>
		</contour>
		<contour>
			<point x="362" y="278" type="line"/>
			<point x="352" y="580" type="line"/>
			<point x="480" y="580" type="line"/>
			<point x="470" y="278" type="line"/>
		</contour>
	</outline>
</glyph>
<glyph name="Basura" format="2">
	<advance width="832"/>
	<outline>
		<contour>
			<point x="178" y="516" type="line"/>
			<point x="178" y="67" type="line" smooth="yes"/>
			<point x="178" y="24"/>
			<point x="208" y="0"/>
			<point x="263" y="0" type="curve" smooth="yes"/>
			<point x="569" y="0" type="line" smooth="yes"/>
			<point x="624" y="0"/>
			<point x="654" y="24"/>
			<point x="654" y="67" type="curve" smooth="yes"/>
			<point x="654" y="516" type="line"/>
			<point x="534" y="516" type="line"/>
			<point x="534" y="79" type="line"/>
			<point x="298" y="79" type="line"/>
			<point x="298" y="516" type="line"/>
		</contour>
		<contour>
			<point x="732" y="580" type="line"/>
			<point x="100" y="580" type="line"/>
			<point x="100" y="466" type="line"/>
			<point x="732" y="466" type="line"/>
		</contour>
		<contour>
			<point x="356" y="516" type="line"/>
			<point x="356" y="76" type="line"/>
			<point x="476" y="76" type="line"/>
			<point x="476" y="516" type="line"/>
		</contour>
		<contour>
			<point x="190" y="691" type="curve" smooth="yes"/>
			<point x="190" y="642" type="line"/>
			<point x="638" y="642" type="line"/>
			<point x="638" y="691" type="line" smooth="yes"/>
			<point x="638" y="733"/>
			<point x="615" y="756"/>
			<point x="573" y="756" type="curve" smooth="yes"/>
			<point x="255" y="756" type="line" smooth="yes"/>
			<point x="213" y="756"/>
			<point x="190" y="733"/>
		</contour>
	</outline>
</glyph>
<glyph name="Extintor" format="2">
	<advance width="832"/>
	<outline>
		<contour>
			<point x="100" y="346" type="curve" smooth="yes"/>
			<point x="102" y="118" type="line"/>
			<point x="208" y="120" type="line"/>
			<point x="208" y="348" type="line" smooth="yes"/>
			<point x="208" y="547"/>
			<point x="190" y="623"/>
			<point x="358" y="623" type="curve" smooth="yes"/>
			<point x="563" y="623" type="line"/>
			<point x="761" y="558" type="line"/>
			<point x="761" y="765" type="line"/>
			<point x="563" y="717" type="line"/>
			<point x="358" y="717" type="line" smooth="yes"/>
			<point x="109" y="717"/>
			<point x="98" y="614"/>
		</contour>
		<contour>
			<point x="276" y="113" type="line"/>
			<point x="276" y="168" type="line"/>
			<point x="589" y="168" type="line"/>
			<point x="589" y="113" type="line"/>
		</contour>
		<contour>
			<point x="276" y="400" type="curve"/>
			<point x="276" y="0" type="line"/>
			<point x="589" y="0" type="line"/>
			<point x="589" y="400" type="line"/>
			<point x="589" y="490"/>
			<point x="549" y="530"/>
			<point x="459" y="530" type="curve"/>
			<point x="410" y="530" type="line"/>
			<point x="317" y="530"/>
			<point x="276" y="490"/>
		</contour>
		<contour>
			<point x="379" y="584" type="line"/>
			<point x="499" y="584" type="line"/>
			<point x="499" y="756" type="line"/>
			<point x="379" y="756" type="line"/>
		</contour>
	</outline>
</glyph>
<glyph name="Jardin" format="2">
	<advance width="832"/>
	<outline>
		<contour>
			<point x="85" y="-1" type="line"/>
			<point x="747" y="-1" type="line"/>
			<point x="747" y="120" type="line"/>
			<point x="85" y="120" type="line"/>
		</contour>
		<contour>
			<point x="349" y="276" type="curve" smooth="yes"/>
			<point x="485" y="276" type="line" smooth="yes"/>
			<point x="604" y="276"/>
			<point x="659" y="339"/>
			<point x="659" y="456" type="curve" smooth="yes"/>
			<point x="659" y="581" type="line" smooth="yes"/>
			<point x="659" y="710"/>
			<point x="622" y="762"/>
			<point x="486" y="762" type="curve" smooth="yes"/>
			<point x="349" y="762" type="line" smooth="yes"/>
			<point x="240" y="762"/>
			<point x="175" y="689"/>
			<point x="175" y="582" type="curve" smooth="yes"/>
			<point x="175" y="456" type="line" smooth="yes"/>
			<point x="175" y="329"/>
			<point x="210" y="276"/>
		</contour>
		<contour>
			<point x="447" y="383" type="curve" smooth="yes"/>
			<point x="387" y="383" type="line"/>
			<point x="311" y="383"/>
			<point x="289" y="395"/>
			<point x="289" y="464" type="curve" smooth="yes"/>
			<point x="289" y="574" type="line" smooth="yes"/>
			<point x="289" y="643"/>
			<point x="311" y="655"/>
			<point x="387" y="655" type="curve" smooth="yes"/>
			<point x="447" y="655" type="line" smooth="yes"/>
			<point x="523" y="655"/>
			<point x="545" y="643"/>
			<point x="545" y="574" type="curve" smooth="yes"/>
			<point x="545" y="464" type="line" smooth="yes"/>
			<point x="545" y="395"/>
			<point x="523" y="383"/>
		</contour>
		<contour>
			<point x="347" y="113" type="line"/>
			<point x="467" y="113" type="line"/>
			<point x="467" y="383" type="line"/>
			<point x="347" y="383" type="line"/>
		</contour>
	</outline>
</glyph>
<glyph name="Mascota" format="2">
	<advance width="898"/>
	<outline>
		<contour>
			<point x="108" y="0" type="line"/>
			<point x="228" y="0" type="line"/>
			<point x="228" y="194" type="line"/>
			<point x="201" y="99" type="line"/>
			<point x="317" y="281" type="line"/>
			<point x="144" y="252" type="line"/>
			<point x="108" y="152" type="line"/>
		</contour>
		<contour>
			<point x="325" y="0" type="line"/>
			<point x="456" y="0" type="line"/>
			<point x="338" y="214" type="line"/>
			<point x="265" y="101" type="line"/>
		</contour>
		<contour>
			<point x="527" y="0" type="line"/>
			<point x="645" y="0" type="line"/>
			<point x="655" y="428" type="line"/>
			<point x="554" y="541" type="line"/>
			<point x="144" y="541" type="line"/>
			<point x="144" y="252" type="line"/>
			<point x="579" y="252" type="line"/>
			<point x="527" y="304" type="line"/>
		</contour>
		<contour>
			<point x="599" y="570" type="line"/>
			<point x="703" y="454" type="line"/>
			<point x="755" y="498" type="line"/>
			<point x="703" y="454" type="line"/>
			<point x="820" y="411" type="line"/>
			<point x="884" y="484" type="line"/>
			<point x="771" y="664" type="line"/>
			<point x="766" y="590" type="line"/>
			<point x="815" y="726" type="line"/>
			<point x="783" y="759" type="line"/>
		</contour>
		<contour>
			<point x="203" y="520" type="move"/>
		</contour>
		<contour>
			<point x="50" y="599" type="line"/>
			<point x="183" y="425" type="line"/>
			<point x="255" y="481" type="line"/>
			<point x="123" y="656" type="line"/>
		</contour>
	</outline>
</glyph>
